<svg width="2000" height="2000" viewBox="0 0 2000 2000" fill="none" xmlns="http://www.w3.org/2000/svg">
<path d="M1855.47 42.9687C1856.69 55.6641 1856.69 55.6641 1855.47 70.3125C1844.9 81.4637 1835.58 87.5822 1820.31 89.8437C1822.89 98.8672 1825.47 107.891 1828.12 117.187C1825.74 118.407 1823.36 119.627 1820.9 120.884C1810.03 126.465 1799.18 132.08 1788.33 137.695C1782.71 140.573 1782.71 140.573 1776.97 143.509C1743.99 160.628 1716.98 177.949 1702.88 213.623C1702.22 223.225 1702.22 223.225 1709.72 230.713C1712.7 233.21 1715.68 235.708 1718.75 238.281C1733.66 251.121 1733.66 251.121 1736.82 263.428C1733.11 278.622 1723.7 285.158 1710.94 292.969C1688.42 304.691 1669.86 312.442 1644.53 304.688C1636.96 299.072 1636.96 299.072 1632.81 292.969C1632.81 290.391 1632.81 287.813 1632.81 285.156C1604.32 284.629 1591.78 295.49 1571.47 314.758C1552.89 333.448 1552.89 333.448 1544.92 357.666C1545.38 371.35 1545.38 371.35 1554.81 377.686C1567.46 392.546 1563.15 410.141 1561.89 428.566C1561.26 443.438 1561.43 451.201 1568.85 464.493C1586.84 480.322 1605.44 481.331 1628.66 482.178C1649.82 483.387 1665.06 485.945 1683.59 496.094C1680.66 518.555 1680.66 518.555 1671.87 527.344C1673.13 541.141 1675.31 553.26 1679.69 566.406C1674.32 572.266 1674.32 572.266 1667.97 578.125C1665.39 578.125 1662.81 578.125 1660.16 578.125C1660.2 582.038 1660.25 585.95 1660.29 589.981C1660.33 595.225 1660.37 600.469 1660.4 605.713C1660.45 610.834 1660.49 615.955 1660.54 621.231C1659.75 653.216 1654.87 669.104 1634.52 693.115C1632.49 695.6 1630.46 698.085 1628.36 700.645C1623.39 706.721 1618.34 712.741 1613.28 718.75C1645.88 749.222 1675.79 763.583 1720.23 766.376C1738.73 767.824 1748.6 772.018 1761.72 785.156C1773.83 809.38 1772.02 838.443 1766.85 864.502C1759.27 885.789 1749.15 894.687 1729.49 905.273C1717.57 909.247 1710.95 910.6 1698.97 911.133C1662.97 914.102 1627.58 937.002 1601.56 960.938C1596.78 970.782 1596.78 970.782 1597.66 980.469C1616.77 1003.61 1654.37 1007.77 1682.13 1014.89C1784.48 1042.19 1784.48 1042.19 1812.5 1078.12C1812.5 1081.99 1812.5 1085.86 1812.5 1089.84C1805.91 1089.95 1799.32 1090.03 1792.72 1090.09C1789.05 1090.13 1785.38 1090.18 1781.6 1090.23C1769.53 1089.84 1769.53 1089.84 1756.55 1087.97C1608.24 1067.01 1463.41 1157.92 1334.79 1220.96C1292.12 1241.85 1249.39 1261.98 1205.32 1279.79C1199.53 1282.14 1199.53 1282.14 1193.63 1284.54C1136.66 1306.99 1076.04 1321.65 1016.69 1298.97C982.242 1282.81 949.063 1263.87 917.038 1243.35C866.368 1211.53 802.314 1218.6 746.428 1231.12C695.246 1243.49 647.652 1263.06 599.992 1285.22C596.859 1286.67 593.727 1288.13 590.5 1289.63C587.731 1290.93 584.963 1292.23 582.11 1293.58C574.334 1296.83 566.812 1298.97 558.594 1300.78C556.576 1295.49 556.576 1295.49 554.517 1290.08C523.792 1209.53 492.519 1129.2 460.693 1049.07C458.972 1044.74 457.251 1040.41 455.478 1035.94C453.739 1031.56 451.999 1027.18 450.207 1022.67C421.51 950.41 393.014 878.074 364.626 805.694C361.065 796.615 357.504 787.536 353.943 778.458C352.173 773.946 350.404 769.434 348.581 764.786C336.082 732.934 323.529 701.103 310.954 669.281C304.988 654.178 299.03 639.071 293.073 623.964C288.319 611.913 283.558 599.864 278.786 587.819C273.515 574.513 268.263 561.198 263.016 547.882C260.696 542.05 260.696 542.05 258.33 536.099C249.115 512.647 241.198 489.101 234.375 464.844C270.122 427.825 305.431 392.95 347.656 363.281C349.883 361.704 352.11 360.127 354.404 358.501C393.449 331.023 434.37 307.435 476.562 285.156C479.841 283.418 483.119 281.681 486.496 279.89C747.49 142.615 747.49 142.615 855.255 166.626C881.565 175.127 901.419 188.701 921.875 207.031C925.644 210.256 925.644 210.256 929.489 213.547C950.232 232.607 965.183 254.989 980.001 278.769C992.241 297.68 1002.7 307.234 1023.44 316.406C1067.07 325.699 1111.59 306.692 1152.34 292.969C1156.37 291.651 1160.39 290.333 1164.53 288.975C1222.07 270.109 1277.39 248.702 1332.03 222.656C1339.43 219.19 1346.82 215.726 1354.22 212.265C1389.76 195.534 1424.88 178.295 1459.47 159.668C1494.3 141.035 1529.92 125.209 1566.48 110.308C1579.23 105.008 1591.85 99.4344 1604.48 93.8568C1656.45 71.4834 1700.5 57.6304 1757.34 59.082C1781.95 59.3867 1806.81 53.9494 1828.7 42.4805C1838.68 37.7685 1845.09 40.0865 1855.47 42.9687ZM850.342 509.521C825.238 540.814 814.806 575.692 816.65 615.723C822.081 664.597 836.99 708.084 872.07 743.164C890.401 754.829 910.938 763.894 932.48 767.303C936.898 768.406 936.898 768.406 941.406 769.531C945.508 777.243 949.414 785.062 953.125 792.969C959.494 799.248 959.494 799.248 968.75 800.781C990.929 798.821 1011.24 794.436 1032.47 787.842C1035.21 787.059 1037.95 786.276 1040.78 785.469C1052.48 781.866 1061.25 778.534 1070.19 770.035C1074.9 760.303 1075.43 753.92 1074.95 743.164C1074.85 740.042 1074.74 736.92 1074.63 733.704C1074.43 730.169 1074.43 730.169 1074.22 726.563C1076.51 725.56 1078.8 724.558 1081.16 723.526C1101.68 712.238 1116.65 692.151 1124.76 670.41C1137.86 621.774 1122.58 568.433 1098.63 525.146C1074.61 489.202 1040.13 464.871 998.001 454.651C938.514 445.312 890.416 465.75 850.342 509.521ZM1199.22 652.344C1189.92 659.871 1189.92 659.871 1190.92 673.34C1191.08 678.013 1191.24 682.686 1191.41 687.5C1191.41 703.125 1191.41 703.125 1186.12 709.892C1183.66 712.131 1181.2 714.369 1178.67 716.675C1175.93 719.205 1173.19 721.735 1170.37 724.342C1167.4 727.009 1164.44 729.675 1161.38 732.422C1158.36 735.189 1155.35 737.956 1152.24 740.807C1146.1 746.442 1139.94 752.059 1133.77 757.66C1125.97 764.742 1118.23 771.876 1110.52 779.053C1088.15 799.865 1088.15 799.865 1080.59 806.563C1073.87 812.662 1073.87 812.662 1066.9 820.524C1045.3 842.732 1045.3 842.732 1028.73 845.438C1017.11 844.738 1006.15 843.034 994.72 840.82C990.586 840.169 986.453 839.518 982.193 838.847C969.052 836.742 955.968 834.395 942.871 832.031C929.741 829.835 916.604 827.688 903.465 825.55C895.314 824.205 887.17 822.816 879.035 821.377C859.125 817.904 840.526 815.591 820.312 816.406C819.99 812.136 819.668 807.866 819.336 803.467C817.682 789.271 817.682 789.271 809.814 781.494C797.709 775.932 790.54 775.189 777.344 777.344C765.625 785.156 765.625 785.156 757.812 796.875C756.16 810.643 757.339 818.892 761.719 832.031C759.785 834.368 757.851 836.704 755.859 839.111C748.859 847.541 748.859 847.541 750.244 859.375C754.524 873.069 757.679 878.609 769.531 886.719C785.48 888.997 793.312 889.368 806.396 879.639C813.635 871.255 813.635 871.255 812.5 859.375C815.743 860.04 818.986 860.704 822.327 861.389C876.022 871.949 930.178 879.242 984.375 886.719C984.375 894.531 984.375 894.531 979.492 900.314C965.238 914.218 950.746 927.615 935.516 940.445C927.35 947.805 919.767 955.34 912.14 963.242C909.65 965.746 907.16 968.251 904.594 970.832C899.599 975.867 894.687 980.986 889.87 986.192C872.265 1003.66 872.265 1003.66 857.045 1004.39C846.542 1003.16 846.542 1003.16 836.791 1001.15C827.204 999.043 827.204 999.043 816.162 1006.1C806.932 1017.72 804.687 1024.24 804.687 1039.06C808.566 1050.08 808.566 1050.08 816.406 1058.59C821.361 1060.53 821.361 1060.53 826.416 1062.5C835.937 1066.41 835.937 1066.41 840.332 1075.93C841.46 1079.23 842.588 1082.53 843.75 1085.94C847.982 1093.42 847.982 1093.42 855.469 1097.66C870.724 1099.6 879.226 1100.11 892.09 1091.31C899.836 1079.99 901.508 1072.24 902.344 1058.59C901.261 1055.57 900.178 1052.55 899.063 1049.44C898.437 1039.06 898.437 1039.06 907.379 1028.55C911.667 1024.75 916.016 1021.01 920.41 1017.33C925.142 1013.18 929.872 1009.02 934.601 1004.87C937.039 1002.76 939.478 1000.66 941.99 998.487C950.951 990.678 959.681 982.645 968.371 974.535C972.554 970.656 976.777 966.82 981.038 963.026C992.098 953.115 1001.95 943.182 1011.18 931.534C1024.98 914.989 1038.01 899.919 1060.4 897.322C1084.38 897.879 1107.62 902.662 1131.04 907.511C1155.24 912.255 1179.68 915.337 1204.1 918.701C1217.26 920.639 1230.42 922.578 1243.58 924.533C1254.76 926.094 1254.76 926.094 1269.53 925.781C1270.42 930.051 1271.3 934.321 1272.22 938.721C1276.1 953.278 1276.1 953.278 1286.13 960.938C1299.5 965.8 1306.77 965.059 1320.31 960.938C1330.53 954.246 1331.85 949.915 1334.96 937.988C1336.49 925.959 1336.49 925.959 1333.74 915.039C1333.18 912.139 1332.61 909.238 1332.03 906.25C1334.61 903.672 1337.19 901.094 1339.84 898.438C1341.54 883.187 1342.29 874.535 1333.25 861.816C1323 854.612 1317.23 851.868 1304.69 851.563C1291.07 857.897 1285.77 862.361 1277.34 875C1235.52 873.454 1194.61 867.262 1153.3 860.828C1148.87 860.142 1144.43 859.456 1139.86 858.749C1135.87 858.12 1131.88 857.49 1127.78 856.841C1116.38 855.134 1116.38 855.134 1101.56 855.469C1111.98 842.127 1122.42 830.521 1135.31 819.55C1156 801.674 1175.62 782.728 1195.3 763.756C1198.1 761.085 1200.91 758.413 1203.8 755.661C1206.3 753.258 1208.8 750.854 1211.38 748.378C1218.81 742.137 1225.32 737.867 1234.37 734.375C1239.62 736.911 1244.82 739.521 1250 742.188C1262.32 741.572 1268.46 739.034 1278.56 731.934C1287.78 718.965 1287.38 710.877 1285.16 695.313C1276.49 683.956 1271.41 680.313 1257.81 675.781C1256.04 672.075 1254.27 668.369 1252.44 664.551C1245.38 650.963 1240.26 646.948 1226.56 640.625C1215.14 640.625 1208.66 646.209 1199.22 652.344Z" fill="#474747"/>
<path d="M207.229 427.586C237.297 442.265 248.329 470.372 259.334 499.872C260.598 503.172 261.861 506.472 263.163 509.872C265.888 517 268.599 524.134 271.296 531.272C278.627 550.671 286.073 570.025 293.497 589.388C295.02 593.37 296.542 597.352 298.111 601.454C312.974 640.275 328.269 678.919 343.657 717.534C349.186 731.428 354.712 745.323 360.238 759.218C361.647 762.763 363.057 766.308 364.51 769.96C382.361 814.865 400.066 859.828 417.779 904.788C421.322 913.78 424.866 922.773 428.409 931.766C433.863 945.607 439.317 959.448 444.77 973.289C465.98 1027.12 487.215 1080.94 508.452 1134.76C510.452 1139.83 512.452 1144.9 514.513 1150.12C551.04 1242.69 587.587 1335.26 624.138 1427.82C648.096 1488.5 672.049 1549.17 695.987 1609.85C698.197 1615.46 700.406 1621.06 702.616 1626.66C712.904 1652.74 723.191 1678.82 733.477 1704.9C736.271 1711.98 736.271 1711.98 739.121 1719.2C742.748 1728.4 746.367 1737.6 749.98 1746.8C758.932 1769.58 768.029 1792.28 777.382 1814.89C779.233 1819.41 781.085 1823.94 782.992 1828.6C786.484 1837.12 790.019 1845.62 793.607 1854.09C804.934 1881.88 811.477 1904.46 801.69 1933.95C791.13 1950.46 778.518 1962.51 760.947 1971.72C740.196 1974.39 723.762 1974.79 704.682 1965.7C685.653 1949.56 674.509 1933.87 665.501 1910.64C662.566 1903.16 662.566 1903.16 659.57 1895.53C657.466 1890.05 655.361 1884.56 653.257 1879.08C651.007 1873.31 648.753 1867.53 646.495 1861.76C641.66 1849.38 636.848 1836.98 632.056 1824.58C624.408 1804.79 616.706 1785.03 608.993 1765.27C606.361 1758.52 603.729 1751.77 601.097 1745.03C599.786 1741.67 598.476 1738.31 597.125 1734.85C593.114 1724.57 589.108 1714.28 585.103 1703.99C562.049 1644.77 538.663 1585.69 515.163 1526.65C504.291 1499.33 493.44 1472.01 482.595 1444.68C480.967 1440.58 480.967 1440.58 479.307 1436.4C452.03 1367.66 424.985 1298.83 397.951 1230C396.749 1226.93 395.546 1223.87 394.307 1220.72C390.676 1211.47 387.045 1202.23 383.415 1192.98C378.624 1180.78 373.833 1168.58 369.042 1156.39C367.865 1153.39 366.687 1150.39 365.474 1147.3C340.898 1084.73 316.243 1022.18 291.559 959.651C289.611 954.715 287.663 949.779 285.655 944.693C273.875 914.85 262.093 885.007 250.31 855.165C233.914 813.641 217.521 772.115 201.132 730.588C191.962 707.353 182.788 684.12 173.614 660.887C168.139 647.011 162.678 633.13 157.218 619.248C150.758 602.833 144.237 586.444 137.653 570.078C136.205 566.449 134.758 562.821 133.266 559.082C130.63 552.475 127.972 545.878 125.284 539.292C115.991 515.873 110.197 493.633 115.394 468.385C132.704 429.901 167.235 414.915 207.229 427.586Z" fill="#474747"/>
<path d="M967.074 527.71C988.454 527.197 1010.23 534.378 1026.34 548.627C1026.84 549.06 1027.33 549.494 1027.84 549.941C1044.33 564.58 1053.87 583.8 1056.83 605.544C1056.9 606.037 1056.97 606.53 1057.04 607.039C1059.45 628.674 1052.86 651.177 1039.94 668.573C1038.82 669.956 1037.68 671.296 1036.51 672.624C1036.07 673.12 1035.64 673.615 1035.19 674.125C1019.2 692.134 997.417 702.055 973.49 703.624C951.664 704.79 928.93 697.315 912.507 682.788C912.012 682.355 911.517 681.921 911.007 681.474C893.868 666.256 883.074 644.885 881.572 621.905C880.677 599.029 886.954 576.187 902.344 558.79C902.777 558.295 903.211 557.8 903.658 557.29C919.099 539.9 940.57 529.342 963.834 527.857C964.914 527.81 965.994 527.761 967.074 527.71ZM950.812 545.165C944.148 552.202 939.853 561.037 936.392 569.971C937.688 570.618 938.211 570.409 939.622 570.137C940.322 570.009 940.322 570.009 941.036 569.878C941.548 569.783 942.059 569.688 942.586 569.589C950.148 568.245 957.707 567.605 965.359 566.921C965.359 557.027 965.359 547.133 965.359 536.938C959.736 536.938 954.708 541.553 950.812 545.165ZM973.49 536.938C973.49 546.833 973.49 556.727 973.49 566.921C976.477 567.225 979.464 567.529 982.542 567.843C989.214 568.533 995.854 569.272 1002.46 570.479C997.852 557.549 990.663 544.119 977.812 537.844C976.32 537.253 975.1 536.938 973.49 536.938ZM918.606 554.725C918.168 555.108 917.731 555.49 917.28 555.884C916.012 557.006 914.765 558.147 913.524 559.299C913.198 559.592 912.871 559.884 912.535 560.186C904.491 567.742 898.496 577.952 894.721 588.265C894.721 588.601 894.721 588.936 894.721 589.282C896.278 588.591 897.566 587.683 898.918 586.653C902.085 584.265 905.389 582.224 908.887 580.357C909.332 580.116 909.777 579.876 910.236 579.628C912.704 578.354 915.068 577.393 917.758 576.688C923.402 575.319 923.402 575.319 927.684 571.686C929.314 568.419 930.296 564.956 931.298 561.456C932.065 559.026 933.146 556.832 934.36 554.598C934.567 554.213 934.774 553.828 934.988 553.431C936.742 550.268 938.771 547.334 940.95 544.452C941.779 543.316 942.432 542.283 942.999 541.004C935.197 541.004 924.109 549.81 918.606 554.725ZM995.85 541.004C996.541 542.561 997.449 543.849 998.479 545.201C1000.87 548.368 1002.91 551.672 1004.78 555.17C1005.02 555.615 1005.26 556.06 1005.5 556.519C1006.78 558.987 1007.74 561.351 1008.44 564.041C1009.81 569.685 1009.81 569.685 1013.45 573.967C1016.71 575.597 1020.18 576.579 1023.68 577.581C1026.11 578.348 1028.3 579.429 1030.53 580.643C1030.92 580.85 1031.3 581.057 1031.7 581.271C1034.86 583.025 1037.8 585.054 1040.68 587.233C1041.82 588.062 1042.85 588.715 1044.13 589.282C1040.9 577.985 1033.71 568.293 1025.83 559.807C1025.54 559.48 1025.25 559.153 1024.94 558.816C1017.39 550.773 1007.18 544.779 996.867 541.004C996.531 541.004 996.196 541.004 995.85 541.004ZM951.638 576.164C950.84 576.262 950.84 576.262 950.025 576.361C944.39 577.095 938.866 578.301 933.343 579.626C931.889 585.685 930.638 591.732 929.881 597.921C929.818 598.417 929.756 598.913 929.691 599.424C929.219 603.564 929.278 607.401 929.278 611.642C941.184 611.642 953.091 611.642 965.359 611.642C965.359 599.735 965.359 587.828 965.359 575.561C960.645 575.561 956.262 575.579 951.638 576.164ZM973.49 575.561C973.49 587.468 973.49 599.374 973.49 611.642C985.397 611.642 997.304 611.642 1009.57 611.642C1009.57 606.928 1009.55 602.545 1008.97 597.921C1008.87 597.123 1008.87 597.123 1008.77 596.308C1008.04 590.673 1006.83 585.149 1005.51 579.626C999.447 578.172 993.4 576.921 987.211 576.164C986.715 576.101 986.219 576.039 985.708 575.974C981.568 575.502 977.731 575.561 973.49 575.561ZM1014.65 582.675C1014.72 583.156 1014.8 583.636 1014.87 584.131C1015.14 585.973 1015.41 587.817 1015.68 589.66C1015.8 590.447 1015.91 591.233 1016.03 592.019C1017.01 598.557 1017.61 605.041 1018.21 611.642C1028.1 611.642 1038 611.642 1048.19 611.642C1046.06 602.059 1038.99 595.391 1030.96 590.172C1023.22 585.131 1023.22 585.131 1014.65 582.675ZM898.044 598.141C894.045 602.4 891.934 605.887 890.655 611.642C900.55 611.642 910.444 611.642 920.638 611.642C920.942 608.655 921.246 605.668 921.56 602.59C922.25 595.917 922.989 589.278 924.196 582.675C915.778 582.675 903.668 592.58 898.044 598.141ZM890.655 619.773C891.988 627.769 897.814 633.968 904.174 638.669C907.499 641.011 911.012 642.995 914.635 644.833C914.949 644.992 915.262 645.151 915.585 645.316C918.372 646.683 921.268 647.716 924.196 648.74C924.124 648.259 924.052 647.779 923.979 647.284C923.705 645.442 923.435 643.598 923.166 641.755C923.051 640.968 922.935 640.182 922.817 639.396C921.842 632.858 921.239 626.374 920.638 619.773C910.744 619.773 900.85 619.773 890.655 619.773ZM929.278 619.773C929.278 624.487 929.296 628.87 929.881 633.494C929.946 634.026 930.011 634.558 930.078 635.107C930.812 640.742 932.018 646.266 933.343 651.789C939.402 653.242 945.449 654.494 951.638 655.251C952.382 655.345 952.382 655.345 953.14 655.441C957.281 655.913 961.118 655.854 965.359 655.854C965.359 643.947 965.359 632.041 965.359 619.773C953.452 619.773 941.545 619.773 929.278 619.773ZM973.49 619.773C973.49 631.68 973.49 643.587 973.49 655.854C978.204 655.854 982.587 655.836 987.211 655.251C987.743 655.186 988.275 655.121 988.824 655.054C994.459 654.32 999.983 653.114 1005.51 651.789C1006.96 645.73 1008.21 639.683 1008.97 633.494C1009.06 632.75 1009.06 632.75 1009.16 631.991C1009.63 627.851 1009.57 624.014 1009.57 619.773C997.664 619.773 985.758 619.773 973.49 619.773ZM1018.21 619.773C1017.91 622.76 1017.6 625.747 1017.29 628.825C1016.6 635.497 1015.86 642.137 1014.65 648.74C1027.58 644.135 1041.01 636.946 1047.29 624.095C1047.88 622.603 1048.19 621.383 1048.19 619.773C1038.3 619.773 1028.4 619.773 1018.21 619.773ZM1043.62 641.625C1043.43 641.817 1043.25 642.009 1043.05 642.207C1038.23 646.781 1032.08 650.082 1026.12 652.932C1025.77 653.102 1025.42 653.272 1025.06 653.446C1023.14 654.338 1021.33 654.972 1019.26 655.414C1014.61 656.477 1014.61 656.477 1011.28 659.687C1009.71 662.988 1008.67 666.462 1007.59 669.943C1006.78 672.359 1005.7 674.577 1004.49 676.817C1004.28 677.202 1004.07 677.587 1003.86 677.984C1001.82 681.658 999.416 685.043 996.867 688.378C996.358 689.056 995.85 689.733 995.342 690.411C998.174 690.12 1000.43 689.09 1002.96 687.87C1003.39 687.666 1003.82 687.463 1004.25 687.253C1012.19 683.371 1018.87 678.112 1025.33 672.116C1025.65 671.823 1025.98 671.529 1026.32 671.227C1034.13 663.89 1040.88 653.401 1044.13 643.15C1043.88 642.395 1043.88 642.395 1043.62 641.625ZM894.721 642.133C897.947 653.424 905.129 663.134 913.016 671.608C913.333 671.953 913.65 672.297 913.976 672.652C921.569 680.596 932.35 687.589 942.999 690.411C942.308 688.854 941.4 687.566 940.37 686.214C937.982 683.047 935.94 679.744 934.074 676.245C933.716 675.578 933.716 675.578 933.351 674.898C932.079 672.423 931.087 670.014 930.316 667.338C928.945 661.881 928.945 661.881 925.653 657.539C923.062 656.161 920.293 655.446 917.462 654.726C915.213 654.088 913.147 653.124 911.046 652.106C910.652 651.918 910.258 651.729 909.851 651.535C905.297 649.298 900.965 646.564 897.113 643.253C895.902 642.026 895.902 642.026 894.721 642.133ZM936.392 660.936C940.997 673.866 948.186 687.296 961.037 693.571C962.529 694.162 963.749 694.476 965.359 694.476C965.359 684.582 965.359 674.688 965.359 664.493C960.878 664.038 960.878 664.038 956.307 663.572C949.634 662.882 942.995 662.143 936.392 660.936ZM999.227 661.327C990.661 662.869 982.162 663.719 973.49 664.493C973.49 674.388 973.49 684.282 973.49 694.476C981.486 693.144 987.685 687.318 992.386 680.958C996.691 674.847 1000.17 668.05 1002.46 660.936C1001.33 660.936 1000.34 661.121 999.227 661.327Z" fill="#474747"/>
<path d="M965.022 489.137C992.297 488.513 1019.21 495.68 1041.59 511.529C1041.89 511.739 1042.18 511.949 1042.49 512.166C1047.98 516.052 1047.98 516.052 1048.7 518.135C1048.63 519.915 1048.38 520.918 1047.37 522.392C1045.65 523.569 1044.67 523.454 1042.6 523.217C1041.12 522.457 1039.85 521.47 1038.54 520.454C1037.77 519.889 1037.01 519.326 1036.24 518.765C1035.86 518.485 1035.47 518.205 1035.08 517.916C1020.09 507.209 1001.76 501.198 983.654 498.824C983.072 498.746 983.072 498.746 982.479 498.666C978.283 498.169 974.058 498.192 969.837 498.189C969.432 498.189 969.027 498.188 968.609 498.188C961.835 498.197 955.259 498.575 948.589 499.841C948.135 499.925 947.682 500.01 947.215 500.097C932.866 502.861 919.937 508.112 907.433 515.542C906.409 516.103 906.409 516.103 904.885 516.611C904.885 516.946 904.885 517.282 904.885 517.627C905.222 517.652 905.559 517.677 905.907 517.703C911.497 518.176 911.497 518.176 913.429 520.041C914.249 521.596 914.316 522.497 914.032 524.234C913.016 525.695 913.016 525.695 911.491 526.775C907.9 527.109 904.47 526.314 900.962 525.584C899.96 525.377 898.956 525.182 897.952 524.988C896.994 524.792 896.994 524.792 896.017 524.591C895.439 524.474 894.861 524.357 894.265 524.236C892.48 523.658 891.449 523.043 890.147 521.693C889.179 517.751 890.557 512.957 891.291 509.052C891.395 508.444 891.499 507.836 891.606 507.209C891.714 506.624 891.822 506.038 891.934 505.435C892.078 504.646 892.078 504.646 892.224 503.841C892.765 502.14 893.501 501.134 894.721 499.841C896.287 499.239 897.021 499.26 898.628 499.745C899.975 500.437 900.669 500.929 901.169 502.382C901.322 503.852 901.241 505.078 901.083 506.542C901.035 507 900.986 507.458 900.936 507.93C900.878 508.454 900.878 508.454 900.819 508.988C901.097 508.825 901.375 508.661 901.662 508.493C921.19 497.058 942.18 489.743 965.022 489.137Z" fill="#474747"/>
<path d="M874.902 536.938C876.109 537.764 876.109 537.764 876.934 538.971C877.339 541.856 876.657 543.291 874.998 545.525C874.589 546.054 874.589 546.054 874.171 546.594C873.606 547.359 873.043 548.126 872.482 548.895C872.202 549.277 871.922 549.658 871.633 550.052C858.239 568.799 851.759 592.636 851.874 615.485C851.875 615.881 851.877 616.277 851.878 616.686C851.973 638.375 857.805 659.254 869.312 677.706C869.392 677.284 869.473 676.861 869.556 676.426C869.674 675.874 869.793 675.321 869.915 674.752C870.027 674.204 870.139 673.656 870.254 673.091C870.836 671.608 870.836 671.608 872.049 670.647C873.89 669.866 875.027 670.062 876.934 670.592C878.108 671.746 878.435 672.437 878.644 674.079C878.613 676.138 878.563 678.191 878.459 680.247C878.435 680.728 878.41 681.21 878.385 681.705C878.297 683.275 878.191 684.841 878.078 686.409C878.047 686.915 878.015 687.421 877.983 687.942C877.808 690.067 877.61 691.617 876.609 693.52C873.466 696.028 868.736 694.868 864.992 694.572C864.079 694.508 864.079 694.508 863.148 694.444C856.241 693.92 856.241 693.92 853.589 692.38C852.701 690.813 852.63 689.081 853.05 687.362C853.855 686.226 853.855 686.226 855.082 685.329C856.784 685.113 856.784 685.113 858.671 685.17C859.296 685.183 859.92 685.195 860.563 685.208C862.197 685.329 862.197 685.329 863.721 685.837C863.45 685.399 863.179 684.961 862.9 684.509C852.318 667.251 845.401 648.63 843.394 628.412C843.337 627.853 843.28 627.295 843.221 626.719C840.509 595.396 849.562 563.552 868.742 538.616C870.716 536.474 872.087 536.117 874.902 536.938Z" fill="#474747"/>
<path d="M1071.88 537.275C1073.15 537.454 1074.42 537.619 1075.69 537.784C1076.55 537.904 1077.41 538.024 1078.27 538.145C1078.88 538.223 1078.88 538.223 1079.51 538.302C1081.96 538.665 1083.49 539.165 1085.29 541.004C1085.89 542.57 1085.87 543.304 1085.39 544.911C1084.78 546.086 1084.78 546.086 1083.77 547.102C1082.4 547.219 1082.4 547.219 1080.78 547.197C1080.25 547.194 1079.71 547.191 1079.17 547.187C1077.9 547.115 1076.84 546.958 1075.64 546.594C1075.93 547.07 1076.23 547.546 1076.53 548.037C1086.82 564.868 1093.48 583.326 1095.45 603.003C1095.51 603.547 1095.57 604.091 1095.63 604.652C1098.16 633.768 1090.6 664.002 1073.6 687.87C1073.39 688.167 1073.18 688.464 1072.97 688.771C1069.08 694.264 1069.08 694.264 1067 694.985C1065.22 694.91 1064.21 694.659 1062.74 693.651C1061.55 691.913 1061.66 690.978 1061.91 688.886C1062.77 687.22 1063.85 685.752 1064.96 684.249C1065.58 683.382 1066.19 682.514 1066.8 681.645C1067.1 681.227 1067.4 680.809 1067.71 680.378C1076.9 667.42 1082.4 652.074 1085.29 636.543C1085.37 636.105 1085.46 635.666 1085.54 635.215C1090.63 607.147 1084.36 575.936 1068.52 552.184C1068.4 552.68 1068.27 553.176 1068.15 553.687C1067.89 554.657 1067.89 554.657 1067.63 555.646C1067.47 556.289 1067.3 556.931 1067.13 557.593C1066.46 559.364 1066.1 559.955 1064.46 560.823C1062.62 561.097 1061.64 560.929 1059.95 560.156C1058.25 558.015 1058.69 555.847 1058.87 553.2C1059.16 550.831 1059.57 548.495 1060.01 546.149C1060.11 545.541 1060.22 544.933 1060.32 544.307C1060.49 543.429 1060.49 543.429 1060.65 542.532C1060.8 541.743 1060.8 541.743 1060.94 540.939C1061.49 539.231 1062.2 538.228 1063.44 536.938C1066.15 536.034 1069.08 536.878 1071.88 537.275Z" fill="#474747"/>
<path d="M1033.09 703.975C1034.96 704.459 1036.81 704.985 1038.66 705.53C1039.3 705.706 1039.94 705.883 1040.59 706.066C1041.21 706.242 1041.82 706.419 1042.45 706.601C1043.01 706.761 1043.56 706.921 1044.13 707.085C1045.85 707.767 1046.92 708.373 1048.19 709.722C1048.94 712.37 1048.57 714.527 1047.82 717.113C1047.68 717.639 1047.68 717.639 1047.53 718.177C1047.32 718.913 1047.11 719.649 1046.9 720.384C1046.57 721.505 1046.26 722.63 1045.96 723.756C1045.75 724.474 1045.55 725.193 1045.34 725.911C1045.21 726.412 1045.21 726.412 1045.07 726.923C1044.46 728.973 1043.76 730.228 1042.1 731.574C1040.32 732.274 1039.69 732.139 1037.9 731.415C1036.51 730.558 1036.51 730.558 1036 729.541C1035.93 727.367 1035.91 725.54 1036.51 723.443C1036.1 723.684 1035.7 723.924 1035.29 724.172C1006.56 741.012 971.939 746.811 939.439 738.822C924.995 735.035 911.158 729.332 898.786 720.902C898.229 720.527 898.229 720.527 897.661 720.145C896.511 719.363 895.376 718.564 894.244 717.758C893.892 717.516 893.54 717.275 893.177 717.026C891.393 715.715 890.747 715.135 890.135 712.932C890.149 711.016 890.491 710.193 891.672 708.706C893.308 707.887 894.424 707.998 896.245 708.198C897.87 709.028 899.294 710.097 900.756 711.183C901.616 711.795 902.477 712.405 903.34 713.013C903.77 713.318 904.201 713.622 904.644 713.935C913.743 720.225 923.847 724.694 934.36 728.017C934.738 728.137 935.117 728.258 935.508 728.382C952.842 733.788 972.403 735.025 990.26 731.574C990.785 731.473 991.309 731.372 991.85 731.268C1006.38 728.376 1021.92 723.192 1033.96 714.296C1034.13 713.96 1034.3 713.625 1034.47 713.279C1034.1 713.224 1033.74 713.168 1033.36 713.111C1030.62 712.662 1028.2 712.259 1025.83 710.738C1024.57 708.848 1024.58 707.894 1024.82 705.657C1026.62 702.603 1030.06 703.337 1033.09 703.975Z" fill="#474747"/>
</svg>
